<svg xmlns="http://www.w3.org/2000/svg" xmlns:xlink="http://www.w3.org/1999/xlink" version="1.1" id="Layer_1" x="0px" y="0px" width="100px" height="100px" viewBox="0 0 100 100" enable-background="new 0 0 100 100" xml:space="preserve">
<g>
</g>
<g>
</g>
<g>
	<path fill="none" d="M75.09,18.758c-0.089,0.163-0.161,0.331-0.215,0.502c0,0,0.001,0,0.001,0.001   C74.93,19.089,75.001,18.92,75.09,18.758l0.574-0.917C74.783,17.12,74,16.446,73,15.822v0.003c1,0.623,1.781,1.296,2.662,2.015   L75.09,18.758z"/>
	<path d="M61.884,5.218c-0.38-0.21-4.762-0.552-6.251-0.552c-1.741,0-3.451,0.14-5.134,0.382c-1.683-0.242-3.394-0.382-5.134-0.382   c-22.166,0-40.2,20.337-40.2,45.335c0,24.997,18.034,45.333,40.2,45.333c1.74,0,3.45-0.139,5.131-0.383   c1.684,0.245,3.395,0.383,5.137,0.383c22.166,0,40.199-20.336,40.199-45.333C95.832,27.401,81.092,8.614,61.884,5.218z    M72.714,15.822c0.001,0,0.002,0.002,0.004,0.003c-0.001,0-0.004,0-0.004,0V15.822z M31.343,86.06   c-12.035-6.167-20.445-20.004-20.445-36.059c0-16.013,8.367-29.819,20.351-36.01c-9.604,8.292-15.814,21.346-15.814,36.008   C15.434,64.704,21.691,77.772,31.343,86.06 M69.709,86.042c-2.777,1.431-5.75,2.451-8.856,2.994   c-0.108-1.257-1.055-2.314-2.332-2.486c-0.041-0.006-0.081,0-0.122-0.003c-0.907-0.071-1.747,0.307-2.294,0.968   c-0.318,0.386-0.54,0.863-0.61,1.403l-0.072,0.564c-1.387-0.01-2.752-0.12-4.094-0.313l0.121-0.31l0.253-0.646   c0.555-1.408-0.117-3.01-1.5-3.575c-1.386-0.566-2.952,0.12-3.506,1.529l-0.686,1.742c-1.387-0.463-2.74-1.019-4.049-1.67   l1.233-1.714c0.879-1.225,0.62-2.945-0.581-3.845c-1.202-0.897-2.89-0.631-3.77,0.593l-1.541,2.143   c-1.225-0.884-2.4-1.847-3.513-2.895l2.06-1.724c1.152-0.964,1.319-2.696,0.374-3.87c-0.944-1.175-2.643-1.346-3.794-0.381   l-2.329,1.949c-0.956-1.208-1.841-2.489-2.662-3.825l2.693-1.282c1.35-0.644,1.933-2.278,1.304-3.654   c-0.631-1.377-2.235-1.973-3.584-1.33l-2.962,1.41c-0.636-1.433-1.201-2.911-1.683-4.438l3.19-0.612   c1.463-0.28,2.427-1.718,2.152-3.212c-0.275-1.49-1.679-2.473-3.149-2.193l-3.513,0.674c-0.284-1.569-0.478-3.175-0.594-4.807   l3.583,0.239c0.061,0.004,0.12,0.005,0.179,0.005c1.409,0,2.595-1.115,2.689-2.569c0.096-1.516-1.03-2.826-2.515-2.925   l-3.999-0.267c0.084-1.678,0.266-3.328,0.528-4.943l3.91,1.305c0.279,0.094,0.561,0.138,0.839,0.138   c1.135,0,2.191-0.737,2.562-1.896c0.464-1.443-0.308-2.997-1.723-3.468L22.98,37.39c0.489-1.657,1.068-3.268,1.737-4.819   l4.005,2.603c0.449,0.293,0.951,0.431,1.446,0.431c0.891,0,1.763-0.45,2.276-1.273c0.8-1.28,0.43-2.98-0.826-3.796l-4.396-2.856   c0.91-1.516,1.908-2.957,2.989-4.31l3.635,3.958c0.531,0.578,1.25,0.87,1.968,0.87c0.661,0,1.323-0.246,1.844-0.743   c1.087-1.039,1.143-2.779,0.125-3.887l-3.861-4.205c1.301-1.212,2.681-2.317,4.127-3.305l2.671,4.966   c0.492,0.911,1.415,1.428,2.368,1.428c0.438,0,0.883-0.11,1.294-0.34c1.306-0.73,1.784-2.402,1.068-3.733l-3.01-4.998   C44.013,12.651,46,11.844,47,11.386c0,0,0.645-0.386,0.646-0.386l1.274,5.359c0.312,1.24,1.41,2.214,2.609,2.216   c0.221,0,0.444,0.046,0.667-0.011c1.443-0.377,2.313-1.839,1.943-3.31l-0.937-3.706c0.023,0.006,0.044,0.016,0.066,0.021   l-0.227-0.929c0.88-0.078,1.734-0.128,2.632-0.128c0.768,0,1.325,0.039,2.325,0.096v2.759v1.135c0,1.519,1.334,2.75,2.823,2.75   c0.881,0,1.893-0.438,2.391-1.104C63.559,15.689,64,15.123,64,14.502v-2.99c1,0.419,2.817,0.964,4.326,1.63l-0.596,1.616   c-0.385,1.468,0.385,2.974,1.822,3.366c0.232,0.063,0.42,0.092,0.647,0.093c1.017-0.005,1.94-0.603,2.393-1.542   c0.075-0.158,0.137-0.322,0.183-0.498l0.011-0.308c0.89,0.611,1.876,1.268,2.736,1.97l-0.469,0.917   c-0.09,0.163-0.144,0.331-0.197,0.503c0.005,0.005,0.01,0.012,0.014,0.018c-0.376,1.216,0.117,2.575,1.25,3.224   c0.417,0.239,0.729,0.354,1.175,0.354c0.031,0-0.048-0.011-0.048-0.013v0c0.906-0.034,1.731-0.449,2.226-1.16   c2.545,2.829,4.775,6.108,6.467,9.714c-1.793-1.764-3.776-3.235-5.967-4.35c-2.533-1.289-5.276-2.098-8.176-2.329   c-0.563-0.044-1.122-0.075-1.696-0.075c-1.42,0-2.805,0.147-4.159,0.414c-1.354-0.267-2.741-0.414-4.161-0.414   c-13.44,0-24.373,12.464-24.373,27.784c0,15.32,10.935,27.784,24.375,27.784c1.419,0,2.811-0.147,4.164-0.414   c0.567,0.112,1.141,0.209,1.721,0.274c0.804,0.092,1.618,0.14,2.442,0.14c2.003,0,3.949-0.282,5.812-0.805   c1.455-0.407,2.858-0.966,4.198-1.657C77.142,81.198,73.622,84.029,69.709,86.042z M52.176,33.634   c-3.996,4.951-6.441,11.552-6.441,18.793c0,7.241,2.445,13.842,6.44,18.793c-5.409-3.845-9.034-10.83-9.034-18.793   C43.141,44.462,46.766,37.478,52.176,33.634z M81.553,69.727c-0.586,0.538-1.198,1.039-1.836,1.493   c-2.135,1.517-4.546,2.539-7.122,2.944c-0.813,0.129-1.643,0.201-2.485,0.201c-1.432,0-2.823-0.197-4.163-0.559   c-8.28-2.232-14.479-10.968-14.479-21.38c0-10.413,6.199-19.147,14.479-21.379c1.34-0.361,2.731-0.559,4.163-0.559   c1.992,0,3.911,0.374,5.712,1.058c1.374,0.521,2.681,1.224,3.896,2.087c1.65,1.173,3.132,2.642,4.398,4.339   c2.883,3.863,4.636,8.921,4.636,14.454C88.751,59.45,85.929,65.708,81.553,69.727z"/>
	<g>
		<g>
			<path fill="#000000" d="M54.254,15.817c0.067,1.257-0.771,2.342-2.04,2.674C53.459,18.166,54.288,17.06,54.254,15.817z      M45.45,18.378l-2.688-4.998c0.005-0.002,0.01-0.004,0.016-0.007l2.672,4.986c0.269,0.499,0.369,1.047,0.321,1.577     C45.816,19.414,45.716,18.872,45.45,18.378z"/>
		</g>
	</g>
</g>
</svg>