<svg xmlns="http://www.w3.org/2000/svg" xmlns:xlink="http://www.w3.org/1999/xlink" version="1.1" id="Layer_1" x="0px" y="0px" width="100px" height="53.303px" viewBox="0 0 100 53.303" enable-background="new 0 0 100 53.303" xml:space="preserve">
<g>
	<rect x="0" y="49.89" fill="#000000" width="100" height="3.413"/>
	<path fill="#000000" d="M22.84,44.807H11.514v2.921h11.108h1.402h52.448h1.619h10.891v-2.921H77.874   c-0.253-1.953-0.723-3.839-1.381-5.639l19.045-6.581l-0.952-2.763l-19.249,6.648c-1.038-2.087-2.343-4.023-3.875-5.769l8.646-8.648   l-2.065-2.065l-8.626,8.626c-1.819-1.675-3.868-3.115-6.102-4.265l9.461-19.449l-2.627-1.281l-9.503,19.533   c-2.858-1.11-5.95-1.772-9.186-1.896V9.721h-2.922v11.575c-3.068,0.192-6.001,0.867-8.717,1.952L30.347,3.774l-2.626,1.281   l9.445,19.417c-2.222,1.171-4.259,2.629-6.063,4.32l-8.649-8.649l-2.065,2.065l8.69,8.691c-1.505,1.748-2.78,3.687-3.795,5.769   L5.911,29.977l-0.952,2.763l19.189,6.63C23.527,41.108,23.083,42.927,22.84,44.807z"/>
</g>
</svg>